<svg width="167" height="58" viewBox="0 0 167 58" fill="none" xmlns="http://www.w3.org/2000/svg">
<g filter="url(#filter0_d_610_374)">
<path d="M24.6686 7.65588L6.91211 29.1086L24.6686 50.5614L42.4251 29.1086L24.6686 7.65588Z" stroke="white" stroke-width="2.07059" shape-rendering="crispEdges"/>
</g>
<g filter="url(#filter1_d_610_374)">
<path d="M37.2253 7.65588L19.4688 29.1086L37.2253 50.5614L54.9818 29.1086L37.2253 7.65588Z" stroke="white" stroke-width="2.07059" shape-rendering="crispEdges"/>
</g>
<g filter="url(#filter2_d_610_374)">
<path d="M30.946 7.65588L13.1895 29.1086L30.946 50.5614L48.7025 29.1086L30.946 7.65588Z" stroke="white" stroke-width="2.07059" shape-rendering="crispEdges"/>
</g>
<g filter="url(#filter3_d_610_374)">
<path d="M43.5046 7.65588L25.748 29.1086L43.5046 50.5614L61.2611 29.1086L43.5046 7.65588Z" stroke="white" stroke-width="2.07059" shape-rendering="crispEdges"/>
</g>
<path d="M7.12891 29.2186H25.9681" stroke="white" stroke-width="2.07059"/>
<path d="M42.4297 29.2186H61.2689" stroke="white" stroke-width="2.07059"/>
<path d="M24.666 7H43.5052" stroke="white" stroke-width="2.07059"/>
<path d="M24.666 51H43.5052" stroke="white" stroke-width="2.07059"/>
<path d="M76.0864 16.5175H74.2051L77.6304 7H79.8063L83.2363 16.5175H81.355L78.7563 8.95184H78.6803L76.0864 16.5175ZM76.1482 12.7858H81.279V14.1707H76.1482V12.7858Z" fill="white"/>
<path d="M89.9457 16.5175L86.7437 12.3583H85.8791V16.5175H84.1165V7H85.8791V10.913H86.3209L89.7795 7H91.9506L88.1072 11.3405L92.1168 16.5175H89.9457Z" fill="white"/>
<path d="M94.1622 16.5175H92.2808L95.7062 7H97.882L101.312 16.5175H99.4308L96.8321 8.95184H96.7561L94.1622 16.5175ZM94.2239 12.7858H99.3548V14.1707H94.2239V12.7858Z" fill="white"/>
<path d="M101.56 18.8133V15.1094H102.211C102.43 14.939 102.634 14.6989 102.824 14.3891C103.014 14.0793 103.176 13.6548 103.309 13.1158C103.442 12.5767 103.534 11.8796 103.584 11.0245L103.841 7H110.06V15.1094H111.143V18.804H109.451V16.5175H103.252V18.8133H101.56ZM104.264 15.1094H108.368V8.44529H105.428L105.276 11.0245C105.234 11.672 105.168 12.2514 105.076 12.7626C104.984 13.2738 104.869 13.7245 104.729 14.1149C104.59 14.5022 104.435 14.8337 104.264 15.1094Z" fill="white"/>
<path d="M112.177 16.5175V7H118.505V8.44529H113.94V11.0292H118.178V12.4744H113.94V15.0722H118.543V16.5175H112.177Z" fill="white"/>
<path d="M119.902 7H122.059L124.948 13.8965H125.062L127.95 7H130.107V16.5175H128.416V9.97888H128.325L125.636 16.4896H124.373L121.684 9.96493H121.594V16.5175H119.902V7Z" fill="white"/>
<path d="M131.625 7H133.373V13.4875H133.463L138.038 7H139.62V16.5175H137.858V10.0346H137.777L133.188 16.5175H131.625V7Z" fill="white"/>
<path d="M148.323 16.5175H146.556V8.44064H144.94C144.503 8.44064 144.144 8.50415 143.862 8.63118C143.583 8.7551 143.376 8.9379 143.239 9.17955C143.106 9.41811 143.04 9.70624 143.04 10.0439C143.04 10.3816 143.106 10.6667 143.239 10.899C143.373 11.1283 143.578 11.3033 143.857 11.4242C144.139 11.5419 144.497 11.6008 144.931 11.6008H147.297V13.0321H144.693C143.946 13.0321 143.316 12.9113 142.802 12.6696C142.289 12.4249 141.9 12.0794 141.634 11.6333C141.371 11.1841 141.239 10.6543 141.239 10.0439C141.239 9.4367 141.369 8.90537 141.629 8.44994C141.892 7.99141 142.278 7.63512 142.788 7.38107C143.298 7.12702 143.925 7 144.669 7H148.323V16.5175ZM143.292 12.2049H145.216L142.85 16.5175H140.883L143.292 12.2049Z" fill="white"/>
<path d="M82.7755 24.1762V33.6937H81.0272V25.6075H76.7705V33.6937H75.0222V24.1762H82.7755Z" fill="white"/>
<path d="M92.8105 27.3874H91.0337C90.983 27.1024 90.8896 26.8499 90.7534 26.6299C90.6172 26.4068 90.4477 26.2179 90.245 26.0629C90.0423 25.908 89.8111 25.7919 89.5514 25.7144C89.2949 25.6339 89.0177 25.5936 88.72 25.5936C88.1911 25.5936 87.7224 25.7237 87.3138 25.9839C86.9052 26.2411 86.5853 26.6191 86.3541 27.1179C86.1229 27.6136 86.0073 28.2193 86.0073 28.9349C86.0073 29.663 86.1229 30.2764 86.3541 30.7752C86.5885 31.2709 86.9084 31.6458 87.3138 31.8999C87.7224 32.1508 88.1895 32.2763 88.7153 32.2763C89.0067 32.2763 89.279 32.2391 89.5324 32.1648C89.789 32.0873 90.0186 31.9742 90.2213 31.8255C90.4271 31.6768 90.5998 31.494 90.7391 31.2771C90.8816 31.0603 90.9798 30.8124 91.0337 30.5336L92.8105 30.5429C92.744 30.9952 92.5998 31.4197 92.3781 31.8162C92.1596 32.2128 91.873 32.5629 91.5182 32.8665C91.1635 33.167 90.7486 33.4025 90.2735 33.5729C89.7985 33.7402 89.2711 33.8238 88.6915 33.8238C87.8364 33.8238 87.0731 33.6302 86.4016 33.2429C85.7302 32.8557 85.2013 32.2964 84.8149 31.5653C84.4285 30.8341 84.2353 29.9573 84.2353 28.9349C84.2353 27.9094 84.4301 27.0327 84.8196 26.3046C85.2092 25.5734 85.7397 25.0142 86.4111 24.627C87.0826 24.2397 87.8427 24.046 88.6915 24.046C89.2331 24.046 89.7367 24.1204 90.2023 24.2691C90.6679 24.4178 91.0828 24.6362 91.447 24.9244C91.8112 25.2094 92.1105 25.5595 92.3449 25.9747C92.5824 26.3867 92.7376 26.8576 92.8105 27.3874Z" fill="white"/>
<path d="M94.0232 24.1762H95.7715V30.6637H95.8618L100.437 24.1762H102.019V33.6937H100.256V27.2108H100.175L95.5862 33.6937H94.0232V24.1762Z" fill="white"/>
<path d="M105.011 24.1762L107.153 27.6616H107.229L109.381 24.1762H111.391L108.393 28.9349L111.439 33.6937H109.396L107.229 30.2315H107.153L104.987 33.6937H102.954L106.027 28.9349L102.992 24.1762H105.011Z" fill="white"/>
<path d="M120.715 28.9349C120.715 29.9604 120.518 30.8388 120.125 31.5699C119.736 32.298 119.204 32.8557 118.529 33.2429C117.858 33.6302 117.096 33.8238 116.244 33.8238C115.392 33.8238 114.629 33.6302 113.954 33.2429C113.283 32.8526 112.751 32.2933 112.358 31.5653C111.968 30.8341 111.774 29.9573 111.774 28.9349C111.774 27.9094 111.968 27.0327 112.358 26.3046C112.751 25.5734 113.283 25.0142 113.954 24.627C114.629 24.2397 115.392 24.046 116.244 24.046C117.096 24.046 117.858 24.2397 118.529 24.627C119.204 25.0142 119.736 25.5734 120.125 26.3046C120.518 27.0327 120.715 27.9094 120.715 28.9349ZM118.942 28.9349C118.942 28.2131 118.827 27.6043 118.596 27.1086C118.368 26.6098 118.051 26.2333 117.646 25.9793C117.24 25.7222 116.773 25.5936 116.244 25.5936C115.715 25.5936 115.248 25.7222 114.843 25.9793C114.437 26.2333 114.119 26.6098 113.888 27.1086C113.66 27.6043 113.546 28.2131 113.546 28.9349C113.546 29.6568 113.66 30.2671 113.888 30.7659C114.119 31.2617 114.437 31.6381 114.843 31.8952C115.248 32.1493 115.715 32.2763 116.244 32.2763C116.773 32.2763 117.24 32.1493 117.646 31.8952C118.051 31.6381 118.368 31.2617 118.596 30.7659C118.827 30.2671 118.942 29.6568 118.942 28.9349Z" fill="white"/>
<path d="M121.348 33.6937V32.2624L121.623 32.2484C121.997 32.2267 122.293 32.0951 122.512 31.8534C122.733 31.6117 122.896 31.2229 123.001 30.6869C123.109 30.151 123.18 29.4322 123.215 28.5306L123.376 24.1762H129.752V33.6937H128.027V25.5936H125.02L124.868 29.0651C124.824 30.106 124.706 30.9689 124.516 31.6536C124.33 32.3383 124.022 32.8495 123.595 33.1872C123.17 33.5249 122.58 33.6937 121.823 33.6937H121.348Z" fill="white"/>
<path d="M139.966 28.9349C139.966 29.9604 139.77 30.8388 139.377 31.5699C138.987 32.298 138.455 32.8557 137.781 33.2429C137.109 33.6302 136.348 33.8238 135.496 33.8238C134.644 33.8238 133.88 33.6302 133.206 33.2429C132.534 32.8526 132.002 32.2933 131.609 31.5653C131.22 30.8341 131.025 29.9573 131.025 28.9349C131.025 27.9094 131.22 27.0327 131.609 26.3046C132.002 25.5734 132.534 25.0142 133.206 24.627C133.88 24.2397 134.644 24.046 135.496 24.046C136.348 24.046 137.109 24.2397 137.781 24.627C138.455 25.0142 138.987 25.5734 139.377 26.3046C139.77 27.0327 139.966 27.9094 139.966 28.9349ZM138.194 28.9349C138.194 28.2131 138.078 27.6043 137.847 27.1086C137.619 26.6098 137.302 26.2333 136.897 25.9793C136.492 25.7222 136.025 25.5936 135.496 25.5936C134.967 25.5936 134.5 25.7222 134.094 25.9793C133.689 26.2333 133.37 26.6098 133.139 27.1086C132.911 27.6043 132.797 28.2131 132.797 28.9349C132.797 29.6568 132.911 30.2671 133.139 30.7659C133.37 31.2617 133.689 31.6381 134.094 31.8952C134.5 32.1493 134.967 32.2763 135.496 32.2763C136.025 32.2763 136.492 32.1493 136.897 31.8952C137.302 31.6381 137.619 31.2617 137.847 30.7659C138.078 30.2671 138.194 29.6568 138.194 28.9349Z" fill="white"/>
<path d="M147.488 24.1762V25.6215H142.994V33.6937H141.231V24.1762H147.488Z" fill="white"/>
<path d="M148.577 24.1762H150.325V30.6637H150.416L154.991 24.1762H156.573V33.6937H154.81V27.2108H154.729L150.14 33.6937H148.577V24.1762Z" fill="white"/>
<path d="M158.092 24.1762H159.84V30.6637H159.93L164.505 24.1762H166.087V33.6937H164.325V27.2108H164.244L159.655 33.6937H158.092V24.1762Z" fill="white"/>
<path d="M74.8369 41.3523H76.5852V47.8399H76.6755L81.2505 41.3523H82.8325V50.8699H81.07V44.387H80.9892L76.3999 50.8699H74.8369V41.3523Z" fill="white"/>
<path d="M87.2688 50.8699V41.3523H93.5256V42.7976H89.0313V45.0283H90.9079C91.6522 45.0283 92.2903 45.1476 92.8224 45.3861C93.3577 45.6216 93.7678 45.9547 94.0529 46.3853C94.3379 46.8159 94.4805 47.3225 94.4805 47.9049C94.4805 48.4905 94.3379 49.0063 94.0529 49.4525C93.7678 49.8955 93.3577 50.2425 92.8224 50.4934C92.2903 50.7444 91.6522 50.8699 90.9079 50.8699H87.2688ZM89.0313 49.4571H90.9079C91.3006 49.4571 91.6332 49.3843 91.9055 49.2387C92.1779 49.0931 92.3838 48.901 92.5231 48.6624C92.6657 48.4239 92.7369 48.1652 92.7369 47.8864C92.7369 47.4836 92.5786 47.1412 92.2618 46.8593C91.9483 46.5743 91.497 46.4318 90.9079 46.4318H89.0313V49.4571Z" fill="white"/>
<path d="M95.6207 41.3523H97.369V47.8399H97.4593L102.034 41.3523H103.616V50.8699H101.854V44.387H101.773L97.1838 50.8699H95.6207V41.3523Z" fill="white"/>
<path d="M108.532 51C107.848 51 107.24 50.8854 106.708 50.6561C106.179 50.4268 105.761 50.1077 105.454 49.6988C105.147 49.2898 104.983 48.8173 104.964 48.2814H106.751C106.767 48.5385 106.854 48.7631 107.012 48.9552C107.17 49.1442 107.381 49.2914 107.644 49.3967C107.907 49.502 108.201 49.5547 108.528 49.5547C108.876 49.5547 109.185 49.4958 109.454 49.3781C109.723 49.2573 109.934 49.09 110.086 48.8762C110.238 48.6624 110.312 48.4161 110.309 48.1373C110.312 47.8492 110.236 47.5951 110.081 47.3752C109.926 47.1552 109.701 46.9832 109.406 46.8593C109.115 46.7354 108.764 46.6734 108.352 46.6734H107.492V45.3443H108.352C108.691 45.3443 108.987 45.287 109.24 45.1724C109.497 45.0577 109.698 44.8966 109.844 44.6891C109.989 44.4784 110.06 44.2352 110.057 43.9594C110.06 43.6899 109.999 43.456 109.872 43.2577C109.749 43.0563 109.573 42.8999 109.345 42.7883C109.12 42.6768 108.855 42.621 108.551 42.621C108.254 42.621 107.978 42.6737 107.725 42.779C107.471 42.8844 107.267 43.0346 107.112 43.2298C106.957 43.4219 106.874 43.6512 106.865 43.9176H105.169C105.181 43.3847 105.338 42.9169 105.639 42.5142C105.943 42.1083 106.349 41.7923 106.855 41.5661C107.362 41.3369 107.931 41.2222 108.561 41.2222C109.21 41.2222 109.774 41.3415 110.252 41.5801C110.734 41.8155 111.106 42.1331 111.369 42.5327C111.631 42.9324 111.763 43.3739 111.763 43.8572C111.766 44.3932 111.604 44.8424 111.278 45.2049C110.955 45.5674 110.531 45.8044 110.005 45.9159V45.9903C110.689 46.0832 111.213 46.3311 111.578 46.7338C111.945 47.1335 112.127 47.6308 112.124 48.2256C112.124 48.7585 111.969 49.2356 111.658 49.6569C111.351 50.0752 110.927 50.4036 110.385 50.6422C109.847 50.8807 109.229 51 108.532 51Z" fill="white"/>
<path d="M113.448 50.8699V41.3523H115.211V45.3815H119.719V41.3523H121.487V50.8699H119.719V46.8268H115.211V50.8699H113.448Z" fill="white"/>
<path d="M123.002 50.8699V41.3523H129.33V42.7976H124.765V45.3815H129.002V46.8268H124.765V49.4246H129.368V50.8699H123.002Z" fill="white"/>
<path d="M139.055 44.5636H137.278C137.228 44.2786 137.134 44.0261 136.998 43.8061C136.862 43.583 136.693 43.394 136.49 43.2391C136.287 43.0842 136.056 42.968 135.796 42.8906C135.54 42.81 135.263 42.7698 134.965 42.7698C134.436 42.7698 133.967 42.8999 133.559 43.1601C133.15 43.4173 132.83 43.7952 132.599 44.294C132.368 44.7897 132.252 45.3954 132.252 46.1111C132.252 46.8392 132.368 47.4526 132.599 47.9514C132.833 48.4471 133.153 48.822 133.559 49.076C133.967 49.327 134.434 49.4525 134.96 49.4525C135.251 49.4525 135.524 49.4153 135.777 49.3409C136.034 49.2635 136.263 49.1504 136.466 49.0017C136.672 48.853 136.845 48.6702 136.984 48.4533C137.126 48.2364 137.225 47.9886 137.278 47.7098L139.055 47.7191C138.989 48.1714 138.845 48.5958 138.623 48.9924C138.404 49.389 138.118 49.739 137.763 50.0427C137.408 50.3432 136.993 50.5786 136.518 50.749C136.043 50.9163 135.516 51 134.936 51C134.081 51 133.318 50.8064 132.646 50.4191C131.975 50.0318 131.446 49.4726 131.06 48.7414C130.673 48.0103 130.48 47.1335 130.48 46.1111C130.48 45.0856 130.675 44.2088 131.064 43.4808C131.454 42.7496 131.984 42.1904 132.656 41.8031C133.327 41.4159 134.087 41.2222 134.936 41.2222C135.478 41.2222 135.981 41.2966 136.447 41.4453C136.913 41.594 137.328 41.8124 137.692 42.1005C138.056 42.3856 138.355 42.7357 138.59 43.1508C138.827 43.5629 138.982 44.0338 139.055 44.5636Z" fill="white"/>
<path d="M141.4 50.8699H139.519L142.944 41.3523H145.12L148.55 50.8699H146.668L144.07 43.3042H143.994L141.4 50.8699ZM141.462 47.1381H146.592V48.523H141.462V47.1381Z" fill="white"/>
<defs>
<filter id="filter0_d_610_374" x="0.391889" y="0.855756" width="48.5541" height="56.5058" filterUnits="userSpaceOnUse" color-interpolation-filters="sRGB">
<feFlood flood-opacity="0" result="BackgroundImageFix"/>
<feColorMatrix in="SourceAlpha" type="matrix" values="0 0 0 0 0 0 0 0 0 0 0 0 0 0 0 0 0 0 127 0" result="hardAlpha"/>
<feOffset/>
<feGaussianBlur stdDeviation="2.58824"/>
<feComposite in2="hardAlpha" operator="out"/>
<feColorMatrix type="matrix" values="0 0 0 0 0 0 0 0 0 0 0 0 0 0 0 0 0 0 0.25 0"/>
<feBlend mode="normal" in2="BackgroundImageFix" result="effect1_dropShadow_610_374"/>
<feBlend mode="normal" in="SourceGraphic" in2="effect1_dropShadow_610_374" result="shape"/>
</filter>
<filter id="filter1_d_610_374" x="12.9485" y="0.855756" width="48.5541" height="56.5058" filterUnits="userSpaceOnUse" color-interpolation-filters="sRGB">
<feFlood flood-opacity="0" result="BackgroundImageFix"/>
<feColorMatrix in="SourceAlpha" type="matrix" values="0 0 0 0 0 0 0 0 0 0 0 0 0 0 0 0 0 0 127 0" result="hardAlpha"/>
<feOffset/>
<feGaussianBlur stdDeviation="2.58824"/>
<feComposite in2="hardAlpha" operator="out"/>
<feColorMatrix type="matrix" values="0 0 0 0 0 0 0 0 0 0 0 0 0 0 0 0 0 0 0.25 0"/>
<feBlend mode="normal" in2="BackgroundImageFix" result="effect1_dropShadow_610_374"/>
<feBlend mode="normal" in="SourceGraphic" in2="effect1_dropShadow_610_374" result="shape"/>
</filter>
<filter id="filter2_d_610_374" x="6.66923" y="0.855756" width="48.5541" height="56.5058" filterUnits="userSpaceOnUse" color-interpolation-filters="sRGB">
<feFlood flood-opacity="0" result="BackgroundImageFix"/>
<feColorMatrix in="SourceAlpha" type="matrix" values="0 0 0 0 0 0 0 0 0 0 0 0 0 0 0 0 0 0 127 0" result="hardAlpha"/>
<feOffset/>
<feGaussianBlur stdDeviation="2.58824"/>
<feComposite in2="hardAlpha" operator="out"/>
<feColorMatrix type="matrix" values="0 0 0 0 0 0 0 0 0 0 0 0 0 0 0 0 0 0 0.25 0"/>
<feBlend mode="normal" in2="BackgroundImageFix" result="effect1_dropShadow_610_374"/>
<feBlend mode="normal" in="SourceGraphic" in2="effect1_dropShadow_610_374" result="shape"/>
</filter>
<filter id="filter3_d_610_374" x="19.2278" y="0.855756" width="48.5541" height="56.5058" filterUnits="userSpaceOnUse" color-interpolation-filters="sRGB">
<feFlood flood-opacity="0" result="BackgroundImageFix"/>
<feColorMatrix in="SourceAlpha" type="matrix" values="0 0 0 0 0 0 0 0 0 0 0 0 0 0 0 0 0 0 127 0" result="hardAlpha"/>
<feOffset/>
<feGaussianBlur stdDeviation="2.58824"/>
<feComposite in2="hardAlpha" operator="out"/>
<feColorMatrix type="matrix" values="0 0 0 0 0 0 0 0 0 0 0 0 0 0 0 0 0 0 0.25 0"/>
<feBlend mode="normal" in2="BackgroundImageFix" result="effect1_dropShadow_610_374"/>
<feBlend mode="normal" in="SourceGraphic" in2="effect1_dropShadow_610_374" result="shape"/>
</filter>
</defs>
</svg>
